# xmcd
# 
# Track frame offsets:
#     187
#     22042
#     42357
#     59902
#     79362
#     97137
#     116650
#     134895
#     156020
#     174717
#     192557
# 
# Disc length: 2739
# 
# Revision: 2
# Processed by: cddbd v1.5.2PL0 Copyright (c) Steve Scherf et al.
# Submitted via: fre:ac v1.0.17
# 
DISCID=ad0ab10b
DTITLE=Reaction - True Imitation
DYEAR=1987
DGENRE=Heavy Metal
TTITLE0=Let It Rock
TTITLE1=Desire
TTITLE2=Everboday's Crazy
TTITLE3=Lookin' For Action
TTITLE4=Change Your Ways
TTITLE5=Bad Boy's Toy
TTITLE6=Cool It Down
TTITLE7=×××9430
TTITLE8=Coming Home
TTITLE9=Lust
TTITLE10=Think'Hink' Bout Tomorrow
EXTD=YEAR: 1987
EXTT0=
EXTT1=
EXTT2=
EXTT3=
EXTT4=
EXTT5=
EXTT6=
EXTT7=
EXTT8=
EXTT9=
EXTT10=
PLAYORDER=
